<svg version="1.1" id="Layer_1" xmlns="http://www.w3.org/2000/svg" xmlns:xlink="http://www.w3.org/1999/xlink" x="0px" y="0px"
	 width="100%" viewBox="0 0 5184 3456" enable-background="new 0 0 5184 3456" xml:space="preserve">
<path fill="#0D47A1" opacity="1.000000" stroke="none"
	d="
M4.000000,3420.000000 
	C4.000000,2281.556396 4.000000,1143.112671 4.000000,4.334531 
	C1732.000000,4.334531 3460.000000,4.334531 5188.000000,4.334531 
	C5188.000000,24.312151 5188.000000,44.309097 5186.742188,66.661469 
	C5180.020996,72.811867 5174.659180,76.763443 5169.079102,80.378601 
	C5083.059082,136.108124 4997.014160,191.798752 4910.966797,247.486618 
	C4881.416016,266.610901 4851.882812,285.762207 4822.253418,304.763672 
	C4815.573242,309.047729 4808.309570,312.428711 4801.683105,316.786530 
	C4770.091309,337.563568 4738.823242,358.837555 4707.086914,379.389679 
	C4342.546387,615.462830 3977.963135,851.470215 3613.322021,1087.388306 
	C3574.774658,1112.327881 3535.622314,1136.332397 3497.055420,1161.242432 
	C3464.174805,1182.479248 3431.924316,1204.690918 3399.067383,1225.965088 
	C3035.067871,1461.646729 2671.034424,1697.276123 2306.928711,1932.793945 
	C2246.657227,1971.779907 2185.880615,2009.985474 2125.559326,2048.895508 
	C2093.787598,2069.389404 2062.691162,2090.929688 2030.955444,2111.480957 
	C1666.413208,2347.551514 1301.828369,2583.556396 937.186157,2819.472412 
	C898.735291,2844.349365 859.676453,2868.286133 821.210144,2893.139160 
	C786.654846,2915.465332 752.704163,2938.726074 718.180542,2961.102051 
	C542.617126,3074.889404 366.953888,3188.522705 191.326294,3302.211182 
	C135.394653,3338.417480 79.496216,3374.675537 23.489799,3410.765869 
	C17.458906,3414.652100 12.071564,3420.270508 4.000000,3420.000000 
z"/>
<path fill="#FFFFFF" opacity="1.000000" stroke="none" 
	d="
M4.000000,3421.946289 
	C12.071564,3420.270508 17.458906,3414.652100 23.489799,3410.765869 
	C79.496216,3374.675537 135.394653,3338.417480 191.326294,3302.211182 
	C366.953888,3188.522705 542.617126,3074.889404 718.180542,2961.102051 
	C752.704163,2938.726074 786.654846,2915.465332 821.210144,2893.139160 
	C859.676453,2868.286133 898.735291,2844.349365 937.186157,2819.472412 
	C1301.828369,2583.556396 1666.413208,2347.551514 2030.955444,2111.480957 
	C2062.691162,2090.929688 2093.787598,2069.389404 2125.559326,2048.895508 
	C2185.880615,2009.985474 2246.657227,1971.779907 2306.928711,1932.793945 
	C2671.034424,1697.276123 3035.067871,1461.646729 3399.067383,1225.965088 
	C3431.924316,1204.690918 3464.174805,1182.479248 3497.055420,1161.242432 
	C3535.622314,1136.332397 3574.774658,1112.327881 3613.322021,1087.388306 
	C3977.963135,851.470215 4342.546387,615.462830 4707.086914,379.389679 
	C4738.823242,358.837555 4770.091309,337.563568 4801.683105,316.786530 
	C4808.309570,312.428711 4815.573242,309.047729 4822.253418,304.763672 
	C4851.882812,285.762207 4881.416016,266.610901 4910.966797,247.486618 
	C4997.014160,191.798752 5083.059082,136.108124 5169.079102,80.378601 
	C5174.659180,76.763443 5180.020996,72.811867 5186.742188,68.508446 
	C5188.000000,1198.418335 5188.000000,2328.836670 5188.000000,3459.627441 
	C3460.000000,3459.627441 1732.000000,3459.627441 4.000000,3459.627441 
	C4.000000,3447.886475 4.000000,3435.889648 4.000000,3421.946289 
z"/>
</svg>